# xmcd CD database file
#
# Track frame offsets:
#	150
#	10990
#	24231
#	34787
#	45118
#	59683
#	73931
#	87068
#	98374
#	111381
#	124221
#	139550
#	152762
#	166983
#	182282
#	195460
#	209551
#
# Disc length: 2985 seconds
#
# Revision: 0
# Processed by: cddbd v1.5.1PL0 Copyright (c) Steve Scherf et al.
# Submitted via: CDex 1.51
#
DISCID=d90ba711
DTITLE=Nat King Cole - An Unforgettable Collection
DYEAR=1900
DGENRE=Jazz
TTITLE0=If You Cant Smile and Say Yes then Please Dont Smile and Say No
TTITLE1=Any Old Time
TTITLE2=Bring Another Drink
TTITLE3=Candy
TTITLE4=Please Consider Me
TTITLE5=I'd Love to Make Love to You
TTITLE6=I'm a Shy Guy
TTITLE7=Katusha
TTITLE8=It Only Happens Once
TTITLE9=Your Nobody Till Somebody Loves You
TTITLE10=Don't Blame Me
TTITLE11=I'm Through With Love
TTITLE12=Sweet Lorraine
TTITLE13=Embraceable You
TTITLE14=It's Only a Paper Moon
TTITLE15=I Just Can't See For Lookin'
TTITLE16=I Realise Now
EXTD=
EXTT0=
EXTT1=
EXTT2=
EXTT3=
EXTT4=
EXTT5=
EXTT6=
EXTT7=
EXTT8=
EXTT9=
EXTT10=
EXTT11=
EXTT12=
EXTT13=
EXTT14=
EXTT15=
EXTT16=
PLAYORDER=
